<svg xmlns="http://www.w3.org/2000/svg" xmlns:xlink="http://www.w3.org/1999/xlink" version="1.1" id="Layer_1" x="0px" y="0px" viewBox="0 0 179.5 44.8" style="enable-background:new 0 0 179.5 44.8;" xml:space="preserve">
<style type="text/css">
	.st0{fill:#18C6AC;}
</style>
<g>
	<path class="st0" d="M53.1,20.1v13.2c0,0.5-0.6,1-1.3,1s-1.3-0.5-1.3-1V20.1c0-0.5,0.6-0.9,1.3-0.9S53.1,19.5,53.1,20.1z"/>
	<path class="st0" d="M59.4,33.2c0,0.5-0.6,1-1.3,1c-0.8,0-1.3-0.5-1.3-1V20.1c0-0.5,0.5-0.9,1.3-0.9c0.6,0,1.2,0.4,1.2,0.9v1.3   c0.6-1.2,2.1-2.4,4.3-2.4c3,0,5.6,2.8,5.6,6.1v8.2c0,0.6-0.7,1-1.3,1c-0.6,0-1.3-0.3-1.3-1v-8.2c0-1.9-1.6-3.7-3.6-3.7   c-1.7,0-3.5,1.4-3.5,3.7L59.4,33.2L59.4,33.2z"/>
	<path class="st0" d="M75.4,33.2c0,0.5-0.6,1-1.3,1c-0.8,0-1.3-0.5-1.3-1V20.1c0-0.5,0.5-0.9,1.3-0.9c0.6,0,1.2,0.4,1.2,0.9v1.3   c0.6-1.2,2.1-2.4,4.3-2.4c3,0,5.6,2.8,5.6,6.1v8.2c0,0.6-0.7,1-1.3,1c-0.6,0-1.3-0.3-1.3-1v-8.2c0-1.9-1.6-3.7-3.6-3.7   c-1.7,0-3.5,1.4-3.5,3.7L75.4,33.2L75.4,33.2z"/>
	<path class="st0" d="M98.1,25.1c0-1.9-1.6-3.7-3.6-3.7s-3.6,1.8-3.6,3.7v3.2c0,1.9,1.6,3.8,3.6,3.8s3.6-1.8,3.6-3.8V25.1z    M100.7,25.1v3.2c0,3.2-2.9,6.2-6.3,6.2s-6.3-2.9-6.3-6.2v-3.2c0-3.2,2.8-6.1,6.3-6.1C97.8,19,100.7,21.7,100.7,25.1z"/>
	<path class="st0" d="M102.5,20.7c0-0.1-0.1-0.3-0.1-0.5c0-0.6,1-1.1,1.7-1.1c0.4,0,0.7,0.2,0.9,0.5l4,10.8l4-10.7   c0.2-0.4,0.4-0.6,0.9-0.6c0.6,0,1.7,0.5,1.7,1.1c0,0.2-0.1,0.4-0.1,0.5l-5.2,13.2c-0.2,0.3-0.7,0.6-1.2,0.6c-0.6,0-1.1-0.2-1.2-0.6   L102.5,20.7z"/>
	<path class="st0" d="M125.7,27.4h-1.1c-2.7,0-5.2,0.2-5.2,2.5c0,1.6,1,2.4,2.4,2.4c1.8,0,3.8-1.8,3.8-3.2L125.7,27.4L125.7,27.4z    M128.3,25.1v8.1c0,0.5-0.5,1-1.3,1c-0.7,0-1.2-0.4-1.2-1V32c-1.1,1.3-2.7,2.5-4.8,2.5c-2.4,0-4.3-1.3-4.3-4.2c0-3.5,3-4.4,7.4-4.4   h1.5v-0.7c0-1.9-0.9-3.9-3.5-3.9c-2.2,0-2.9,0.9-3.5,0.9s-1-0.8-1-1.3c0-1,2.4-1.8,4.5-1.8C126.7,19,128.3,21.9,128.3,25.1z"/>
	<path class="st0" d="M142.4,25.2c0-2.2-1.5-3.6-3.3-3.6c-1.7,0-3.4,1.3-3.4,3.7v8.2c0,0.5-0.6,1-1.3,1c-0.8,0-1.3-0.5-1.3-1V20.2   c0-0.5,0.5-0.9,1.3-0.9c0.7,0,1.2,0.4,1.2,0.9v1.3c0.7-1.2,2.1-2.4,4.2-2.4c2,0,3.6,1.3,4.3,3.2c1.1-2.2,3-3.2,4.8-3.2   c2.8,0,5.4,2.2,5.4,6.1v8.2c0,0.5-0.6,1-1.3,1s-1.3-0.5-1.3-1v-8.2c0-2.4-1.7-3.7-3.3-3.7c-1.7,0-3.4,1.4-3.4,3.6v8.3   c0,0.6-0.7,0.9-1.3,0.9s-1.3-0.3-1.3-0.9L142.4,25.2L142.4,25.2z"/>
	<path class="st0" d="M165.9,27.6h-1.1c-2.7,0-5.2,0.2-5.2,2.5c0,1.6,1,2.4,2.4,2.4c1.8,0,3.8-1.8,3.8-3.2L165.9,27.6L165.9,27.6z    M168.6,25.3v8.1c0,0.5-0.5,1-1.3,1c-0.7,0-1.2-0.4-1.2-1v-1.3c-1.1,1.3-2.7,2.5-4.8,2.5c-2.4,0-4.3-1.3-4.3-4.2   c0-3.5,3-4.4,7.4-4.4h1.5v-0.7c0-1.9-1-3.9-3.5-3.9c-2.2,0-2.9,0.9-3.5,0.9s-1-0.8-1-1.3c0-1,2.4-1.8,4.5-1.8   C166.9,19.1,168.6,22.1,168.6,25.3z"/>
	<path class="st0" d="M174.8,29.6c0,1.8,0.7,2.5,2.6,2.5h1c0.7,0,1.1,0.5,1.1,1.1s-0.4,1.2-1.1,1.2h-1c-3.4,0-5.3-1.5-5.3-4.8V13.2   c0-0.5,0.7-0.9,1.3-0.9c0.7,0,1.3,0.4,1.3,0.9v6.1h4c0.5,0,0.8,0.5,0.8,1s-0.3,1-0.8,1h-4L174.8,29.6L174.8,29.6z"/>
	<circle class="st0" cx="51.7" cy="16.2" r="1.8"/>
	<path class="st0" d="M34.8,33c0,1-1.1,1.9-2.3,1.9S30.2,34,30.2,33v-8.7c0-2-1.3-3-2.6-3c-1.3,0-2.7,1.1-2.7,2.9V33   c0,1.1-1,1.9-2.3,1.9s-2.3-0.8-2.3-1.9v-8.8c0-1.7-1.1-2.9-2.6-2.9c0,0-1.6,0.1-1.6-1.9c0,0-0.2-2.1,1.5-2.4   c0.3-0.1,0.5-0.1,0.9-0.1c1.9,0,3.6,0.9,4.7,2.5c1.3-1.6,3.1-2.5,5-2.5c3.2,0,6.7,2.6,6.7,7.4L34.8,33L34.8,33z M12.6,13.6   c-1.4,0-2.7-1.2-2.7-2.5c0-1.4,1.2-2.5,2.7-2.5c1.4,0,2.6,1.1,2.6,2.5C15.2,12.4,14,13.6,12.6,13.6z M15,19v5.3v4.6V33   c0,1-1.1,1.9-2.3,1.9c-1.3,0-2.3-0.9-2.3-1.9v-4.1v-5.3V19v-0.3c0-1,1.1-1.9,2.3-1.9c1.3,0,2.3,0.9,2.3,1.9V19z M22.4,0   C10,0,0,10,0,22.4s10,22.4,22.4,22.4s22.4-10,22.4-22.4S34.8,0,22.4,0z"/>
</g>
</svg>